<?xml version="1.0" encoding="UTF-8" standalone="no"?>
<!-- Created with Inkscape (http://www.inkscape.org/) -->

<svg
   xmlns:dc="http://purl.org/dc/elements/1.1/"
   xmlns:cc="http://creativecommons.org/ns#"
   xmlns:rdf="http://www.w3.org/1999/02/22-rdf-syntax-ns#"
   xmlns:svg="http://www.w3.org/2000/svg"
   xmlns="http://www.w3.org/2000/svg"
   xmlns:xlink="http://www.w3.org/1999/xlink"
   xmlns:sodipodi="http://sodipodi.sourceforge.net/DTD/sodipodi-0.dtd"
   xmlns:inkscape="http://www.inkscape.org/namespaces/inkscape"
   width="210mm"
   height="148mm"
   viewBox="0 0 210 148"
   version="1.1"
   id="svg8"
   inkscape:version="0.92.2 5c3e80d, 2017-08-06"
   sodipodi:docname="architecture.svg">
  <defs
     id="defs2">
    <linearGradient
       inkscape:collect="always"
       id="linearGradient915">
      <stop
         style="stop-color:#ffffff;stop-opacity:1;"
         offset="0"
         id="stop911" />
      <stop
         style="stop-color:#ffffff;stop-opacity:0;"
         offset="1"
         id="stop913" />
    </linearGradient>
    <radialGradient
       inkscape:collect="always"
       xlink:href="#linearGradient915"
       id="radialGradient917"
       cx="134.74852"
       cy="124.45386"
       fx="134.74852"
       fy="124.45386"
       r="21.487947"
       gradientTransform="matrix(1,0,0,0.48988565,-3.4017857,67.454452)"
       gradientUnits="userSpaceOnUse" />
    <radialGradient
       inkscape:collect="always"
       xlink:href="#linearGradient915"
       id="radialGradient984"
       gradientUnits="userSpaceOnUse"
       gradientTransform="matrix(1,0,0,0.48988565,-3.4017857,110.31704)"
       cx="134.74852"
       cy="124.45386"
       fx="134.74852"
       fy="124.45386"
       r="21.487947" />
  </defs>
  <sodipodi:namedview
     id="base"
     pagecolor="#ffffff"
     bordercolor="#666666"
     borderopacity="1.0"
     inkscape:pageopacity="0.0"
     inkscape:pageshadow="2"
     inkscape:zoom="0.98994949"
     inkscape:cx="261.44549"
     inkscape:cy="255.26966"
     inkscape:document-units="mm"
     inkscape:current-layer="layer1"
     showgrid="false"
     inkscape:window-width="1916"
     inkscape:window-height="1036"
     inkscape:window-x="0"
     inkscape:window-y="22"
     inkscape:window-maximized="0" />
  <metadata
     id="metadata5">
    <rdf:RDF>
      <cc:Work
         rdf:about="">
        <dc:format>image/svg+xml</dc:format>
        <dc:type
           rdf:resource="http://purl.org/dc/dcmitype/StillImage" />
        <dc:title></dc:title>
      </cc:Work>
    </rdf:RDF>
  </metadata>
  <g
     inkscape:label="Layer 1"
     inkscape:groupmode="layer"
     id="layer1"
     transform="translate(0,-149)">
    <flowRoot
       xml:space="preserve"
       id="flowRoot986"
       style="font-style:normal;font-weight:normal;font-size:40px;line-height:125%;font-family:sans-serif;letter-spacing:0px;word-spacing:0px;fill:#000000;fill-opacity:1;stroke:none;stroke-width:1px;stroke-linecap:butt;stroke-linejoin:miter;stroke-opacity:1"
       transform="scale(0.26458333)"><flowRegion
         id="flowRegion988"><rect
           id="rect990"
           width="447.85715"
           height="170"
           x="188.57143"
           y="393.23398" /></flowRegion><flowPara
         id="flowPara992"></flowPara></flowRoot>    <g
       id="g1031"
       transform="translate(13.898015,121.34036)">
      <g
         transform="translate(-38.175595,-69.547619)"
         id="g1001">
        <g
           transform="matrix(0.67810369,0,0,-0.76282423,58.253402,144.37321)"
           inkscape:label="ink_ext_XXXXXX"
           id="g858-3-5">
          <g
             transform="scale(0.1)"
             id="g860-6-3">
            <path
               inkscape:connector-curvature="0"
               id="path862-7-5"
               style="fill:#000000;fill-opacity:1;fill-rule:nonzero;stroke:none"
               d="M 398.828,371.91 C 389.57,406.25 320.621,440 200,440 79.3789,440 10.4297,406.25 1.17188,371.91 0.511719,370.738 0,369.449 0,368.012 V 71.9883 c 0,-1.2891 0.351563,-2.5 0.941406,-3.5899 C 10.3906,29.2188 94.9219,0 200,0 c 104.84,0 189.262,29.1016 198.98,68.1211 0.668,1.1406 1.02,2.4687 1.02,3.8672 V 368.012 c 0,1.437 -0.512,2.726 -1.172,3.898 z M 383.359,168.121 c -0.238,-0.973 -0.55,-1.91 -0.937,-2.891 -0.313,-0.82 -0.703,-1.601 -1.133,-2.378 -0.551,-0.973 -1.129,-1.993 -1.84,-2.973 -0.539,-0.738 -1.129,-1.481 -1.75,-2.219 -0.898,-1.019 -1.84,-2.07 -2.898,-3.129 -0.66,-0.621 -1.36,-1.25 -2.102,-1.871 -1.289,-1.14 -2.66,-2.308 -4.179,-3.398 -0.668,-0.512 -1.372,-0.981 -2.071,-1.453 -1.801,-1.25 -3.719,-2.5 -5.789,-3.707 -0.539,-0.352 -1.09,-0.661 -1.68,-0.981 -2.378,-1.32 -4.878,-2.652 -7.57,-3.98 -0.32,-0.161 -0.711,-0.313 -1.058,-0.469 -2.973,-1.402 -6.133,-2.813 -9.454,-4.141 -0.117,-0.043 -0.199,-0.082 -0.308,-0.121 -18.168,-7.262 -41.41,-13.359 -68.481,-17.379 -0.16,0 -0.269,0 -0.429,-0.043 -5.231,-0.777 -10.66,-1.437 -16.211,-2.066 -0.899,-0.121 -1.84,-0.152 -2.739,-0.274 -4.839,-0.507 -9.761,-0.937 -14.8,-1.328 -2.309,-0.16 -4.692,-0.23 -7.032,-0.39 -3.828,-0.231 -7.578,-0.469 -11.449,-0.59 -6.359,-0.231 -12.847,-0.352 -19.449,-0.352 -6.602,0 -13.09,0.121 -19.449,0.352 -3.91,0.16 -7.66,0.39 -11.449,0.629 -2.34,0.121 -4.762,0.23 -7.071,0.39 -5.043,0.352 -9.922,0.821 -14.761,1.332 -0.899,0.079 -1.879,0.149 -2.782,0.27 -5.539,0.59 -10.937,1.289 -16.207,2.07 -0.121,0 -0.269,0 -0.39,0.039 -27.071,3.981 -50.3129,10.121 -68.4808,17.34 -0.1094,0.039 -0.1914,0.078 -0.3086,0.121 -3.3633,1.367 -6.4805,2.739 -9.4922,4.18 -0.3086,0.16 -0.6992,0.309 -1.0586,0.469 -2.6524,1.289 -5.1524,2.621 -7.5313,3.98 -0.5898,0.32 -1.1797,0.629 -1.7187,0.942 -2.0703,1.25 -3.9492,2.457 -5.75,3.707 -0.6992,0.511 -1.4024,0.98 -2.0703,1.453 -1.5196,1.129 -2.8907,2.258 -4.211,3.398 -0.7109,0.621 -1.4101,1.25 -2.0703,1.91 -1.0586,1.02 -2,2.071 -2.8984,3.129 -0.6211,0.742 -1.25,1.481 -1.75,2.223 -0.711,0.976 -1.2891,1.957 -1.8399,2.93 -0.4296,0.82 -0.8203,1.597 -1.1718,2.378 -0.3907,0.981 -0.6993,1.961 -0.8985,2.891 -0.3125,1.289 -0.6211,2.578 -0.6211,3.867 0,0.903 0.0703,1.801 0.2305,2.703 0.1992,1.207 0.0781,2.418 -0.2305,3.59 v 59.379 c 0.1914,-0.199 0.5,-0.39 0.6993,-0.629 1.7617,-1.519 3.5507,-3.051 5.5507,-4.531 C 52.3789,209.73 112.66,191.988 200,191.988 c 86.988,0 147.07,17.582 177.34,40.242 2.43,1.75 4.609,3.551 6.64,5.43 v -59.379 c -0.308,-1.172 -0.429,-2.383 -0.23,-3.59 0.16,-0.902 0.23,-1.8 0.23,-2.703 0,-1.289 -0.308,-2.578 -0.621,-3.867 z m 0.621,165.551 v -59.41 c -0.308,-1.141 -0.429,-2.352 -0.23,-3.563 0.16,-0.898 0.23,-1.789 0.23,-2.687 0,-1.293 -0.308,-2.582 -0.621,-3.91 -0.238,-0.942 -0.55,-1.911 -0.937,-2.891 -0.313,-0.781 -0.703,-1.563 -1.133,-2.383 -0.551,-0.976 -1.129,-1.949 -1.84,-2.93 -0.539,-0.738 -1.129,-1.488 -1.75,-2.226 -0.898,-1.051 -1.84,-2.113 -2.898,-3.121 -0.66,-0.629 -1.36,-1.25 -2.102,-1.922 -1.289,-1.129 -2.66,-2.258 -4.179,-3.399 -0.668,-0.46 -1.372,-0.929 -2.071,-1.441 -1.801,-1.25 -3.719,-2.461 -5.789,-3.711 -0.539,-0.308 -1.09,-0.629 -1.68,-0.937 -2.378,-1.371 -4.878,-2.692 -7.57,-3.981 -0.32,-0.16 -0.711,-0.32 -1.058,-0.469 -2.973,-1.453 -6.133,-2.812 -9.454,-4.179 -0.117,-0.043 -0.199,-0.082 -0.308,-0.121 -18.168,-7.231 -41.41,-13.36 -68.481,-17.34 -0.16,0 -0.269,-0.039 -0.429,-0.039 -5.231,-0.782 -10.66,-1.492 -16.211,-2.071 -0.899,-0.121 -1.84,-0.203 -2.739,-0.281 -4.839,-0.5 -9.761,-0.969 -14.8,-1.32 -2.309,-0.199 -4.692,-0.281 -7.032,-0.391 -3.828,-0.238 -7.578,-0.469 -11.449,-0.629 -6.359,-0.199 -12.847,-0.308 -19.449,-0.308 -6.602,0 -13.09,0.109 -19.449,0.347 -3.91,0.121 -7.66,0.391 -11.449,0.59 -2.34,0.153 -4.762,0.231 -7.071,0.391 -5.043,0.39 -9.922,0.859 -14.761,1.359 -0.899,0.082 -1.879,0.16 -2.782,0.242 -5.539,0.618 -10.937,1.329 -16.207,2.071 -0.121,0.039 -0.269,0.039 -0.39,0.078 -27.071,3.98 -50.3129,10.07 -68.4808,17.34 -0.1094,0.039 -0.1914,0.082 -0.3086,0.121 -3.3633,1.328 -6.4805,2.73 -9.4922,4.14 -0.3086,0.188 -0.6992,0.348 -1.0586,0.508 -2.6524,1.281 -5.1524,2.61 -7.5313,3.942 -0.5898,0.347 -1.1797,0.66 -1.7187,0.98 -2.0703,1.207 -3.9492,2.457 -5.75,3.707 -0.6992,0.473 -1.4024,0.942 -2.0703,1.442 -1.5196,1.14 -2.8907,2.269 -4.211,3.402 -0.7109,0.629 -1.4101,1.25 -2.0703,1.879 -1.0586,1.051 -2,2.109 -2.8984,3.16 -0.6211,0.699 -1.25,1.449 -1.75,2.187 -0.711,1.012 -1.2891,1.993 -1.8399,2.973 -0.4296,0.777 -0.8203,1.559 -1.1718,2.379 -0.3907,0.98 -0.6993,1.91 -0.8985,2.891 -0.3125,1.289 -0.6211,2.578 -0.6211,3.871 0,0.898 0.0703,1.789 0.2305,2.687 0.1992,1.211 0.0781,2.422 -0.2305,3.563 v 59.41 c 0.9297,-0.902 2.0313,-1.762 3.0821,-2.621 0.5898,-0.461 1.0976,-0.93 1.7187,-1.442 2.3789,-1.879 5,-3.75 7.8086,-5.55 0.5899,-0.387 1.2109,-0.739 1.8399,-1.129 2.3398,-1.45 4.8398,-2.891 7.4609,-4.301 0.9805,-0.508 1.9101,-1.008 2.9297,-1.559 2.9297,-1.48 5.9804,-2.929 9.2187,-4.34 0.5117,-0.191 0.9727,-0.46 1.5235,-0.66 3.75,-1.601 7.7382,-3.121 11.8789,-4.609 1.1679,-0.391 2.3398,-0.781 3.5078,-1.172 3.3203,-1.129 6.7226,-2.187 10.2422,-3.199 1.289,-0.391 2.539,-0.789 3.8203,-1.141 4.6875,-1.289 9.539,-2.5 14.6094,-3.629 0.6679,-0.199 1.4492,-0.308 2.1484,-0.468 4.4614,-0.973 9.1014,-1.872 13.8714,-2.731 1.601,-0.281 3.242,-0.551 4.922,-0.82 4.527,-0.75 9.179,-1.41 13.988,-2.031 1.211,-0.161 2.422,-0.36 3.672,-0.508 5.937,-0.711 12.109,-1.332 18.437,-1.883 1.563,-0.109 3.16,-0.188 4.762,-0.309 5.039,-0.39 10.238,-0.66 15.508,-0.941 1.953,-0.078 3.871,-0.149 5.82,-0.231 6.91,-0.238 13.941,-0.386 21.211,-0.386 7.27,0 14.301,0.148 21.211,0.386 1.949,0.082 3.867,0.153 5.82,0.231 5.27,0.281 10.469,0.551 15.508,0.941 1.602,0.121 3.199,0.2 4.762,0.309 6.328,0.551 12.5,1.172 18.437,1.883 1.25,0.148 2.461,0.347 3.672,0.508 4.809,0.621 9.461,1.281 13.988,2.031 1.68,0.269 3.321,0.539 4.922,0.82 4.77,0.859 9.41,1.758 13.871,2.731 0.7,0.16 1.481,0.308 2.149,0.468 5.07,1.129 9.922,2.34 14.609,3.629 1.281,0.391 2.531,0.75 3.821,1.141 3.519,1.012 6.921,2.07 10.242,3.199 1.168,0.391 2.34,0.781 3.508,1.172 4.14,1.488 8.128,3.008 11.878,4.609 0.551,0.2 1.012,0.469 1.524,0.66 3.238,1.411 6.289,2.86 9.219,4.34 1.019,0.551 1.988,1.051 2.929,1.559 2.621,1.41 5.121,2.82 7.461,4.301 0.629,0.39 1.25,0.742 1.84,1.129 2.809,1.8 5.43,3.671 7.809,5.55 0.59,0.512 1.129,0.981 1.718,1.442 1.051,0.859 2.153,1.719 3.082,2.621 z M 200,423.98 c 108.441,0 183.98,-31.601 183.98,-60 0,-28.359 -75.539,-60 -183.98,-60 -108.4414,0 -183.9805,31.641 -183.9805,60 0,28.399 75.5391,60 183.9805,60 z M 383.98,74.3789 c -0.07,-0.3594 -0.191,-0.707 -0.23,-1.0976 C 379.219,45.6211 304.301,16.0195 200,16.0195 c -104.3008,0 -179.2187,29.6016 -183.75,57.2618 -0.0391,0.3906 -0.1602,0.7382 -0.2305,1.0585 v 67.3012 c 0.1914,-0.192 0.5,-0.391 0.6993,-0.59 1.7617,-1.563 3.5507,-3.082 5.5507,-4.531 C 52.3789,113.711 112.66,96.0195 200,96.0195 c 86.988,0 147.07,17.5315 177.34,40.1915 2.43,1.758 4.609,3.59 6.64,5.43 z" />
          </g>
        </g>
        <rect
           style="fill:url(#radialGradient917);fill-opacity:1;stroke:#000000;stroke-width:0.26499999;stroke-miterlimit:4;stroke-dasharray:none;stroke-opacity:0.98823529"
           id="rect909"
           width="42.711311"
           height="20.788691"
           x="109.99107"
           y="118.02826" />
        <text
           xml:space="preserve"
           style="font-style:normal;font-weight:normal;font-size:10.58333302px;line-height:125%;font-family:sans-serif;letter-spacing:0px;word-spacing:0px;fill:#000000;fill-opacity:1;stroke:none;stroke-width:0.26458332px;stroke-linecap:butt;stroke-linejoin:miter;stroke-opacity:1"
           x="115.28274"
           y="130.69049"
           id="text923"><tspan
             sodipodi:role="line"
             id="tspan921"
             x="115.28274"
             y="130.69049"
             style="font-style:normal;font-variant:normal;font-weight:normal;font-stretch:normal;font-size:7.05555534px;font-family:sans-serif;-inkscape-font-specification:'sans-serif, Normal';font-variant-ligatures:normal;font-variant-caps:normal;font-variant-numeric:normal;font-feature-settings:normal;text-align:start;writing-mode:lr-tb;text-anchor:start;stroke-width:0.26458332px">System 1</tspan></text>
        <path
           style="fill:none;fill-rule:evenodd;stroke:#000000;stroke-width:0.26458332px;stroke-linecap:butt;stroke-linejoin:miter;stroke-opacity:1"
           d="m 84.291227,128.36061 25.605353,0.16597 v 0"
           id="path963"
           inkscape:connector-curvature="0" />
      </g>
      <g
         transform="translate(-38.175595,-69.547619)"
         id="g1010">
        <g
           id="g972"
           inkscape:label="ink_ext_XXXXXX"
           transform="matrix(0.67810369,0,0,-0.76282423,58.253402,187.23598)">
          <g
             id="g970"
             transform="scale(0.1)">
            <path
               d="M 398.828,371.91 C 389.57,406.25 320.621,440 200,440 79.3789,440 10.4297,406.25 1.17188,371.91 0.511719,370.738 0,369.449 0,368.012 V 71.9883 c 0,-1.2891 0.351563,-2.5 0.941406,-3.5899 C 10.3906,29.2188 94.9219,0 200,0 c 104.84,0 189.262,29.1016 198.98,68.1211 0.668,1.1406 1.02,2.4687 1.02,3.8672 V 368.012 c 0,1.437 -0.512,2.726 -1.172,3.898 z M 383.359,168.121 c -0.238,-0.973 -0.55,-1.91 -0.937,-2.891 -0.313,-0.82 -0.703,-1.601 -1.133,-2.378 -0.551,-0.973 -1.129,-1.993 -1.84,-2.973 -0.539,-0.738 -1.129,-1.481 -1.75,-2.219 -0.898,-1.019 -1.84,-2.07 -2.898,-3.129 -0.66,-0.621 -1.36,-1.25 -2.102,-1.871 -1.289,-1.14 -2.66,-2.308 -4.179,-3.398 -0.668,-0.512 -1.372,-0.981 -2.071,-1.453 -1.801,-1.25 -3.719,-2.5 -5.789,-3.707 -0.539,-0.352 -1.09,-0.661 -1.68,-0.981 -2.378,-1.32 -4.878,-2.652 -7.57,-3.98 -0.32,-0.161 -0.711,-0.313 -1.058,-0.469 -2.973,-1.402 -6.133,-2.813 -9.454,-4.141 -0.117,-0.043 -0.199,-0.082 -0.308,-0.121 -18.168,-7.262 -41.41,-13.359 -68.481,-17.379 -0.16,0 -0.269,0 -0.429,-0.043 -5.231,-0.777 -10.66,-1.437 -16.211,-2.066 -0.899,-0.121 -1.84,-0.152 -2.739,-0.274 -4.839,-0.507 -9.761,-0.937 -14.8,-1.328 -2.309,-0.16 -4.692,-0.23 -7.032,-0.39 -3.828,-0.231 -7.578,-0.469 -11.449,-0.59 -6.359,-0.231 -12.847,-0.352 -19.449,-0.352 -6.602,0 -13.09,0.121 -19.449,0.352 -3.91,0.16 -7.66,0.39 -11.449,0.629 -2.34,0.121 -4.762,0.23 -7.071,0.39 -5.043,0.352 -9.922,0.821 -14.761,1.332 -0.899,0.079 -1.879,0.149 -2.782,0.27 -5.539,0.59 -10.937,1.289 -16.207,2.07 -0.121,0 -0.269,0 -0.39,0.039 -27.071,3.981 -50.3129,10.121 -68.4808,17.34 -0.1094,0.039 -0.1914,0.078 -0.3086,0.121 -3.3633,1.367 -6.4805,2.739 -9.4922,4.18 -0.3086,0.16 -0.6992,0.309 -1.0586,0.469 -2.6524,1.289 -5.1524,2.621 -7.5313,3.98 -0.5898,0.32 -1.1797,0.629 -1.7187,0.942 -2.0703,1.25 -3.9492,2.457 -5.75,3.707 -0.6992,0.511 -1.4024,0.98 -2.0703,1.453 -1.5196,1.129 -2.8907,2.258 -4.211,3.398 -0.7109,0.621 -1.4101,1.25 -2.0703,1.91 -1.0586,1.02 -2,2.071 -2.8984,3.129 -0.6211,0.742 -1.25,1.481 -1.75,2.223 -0.711,0.976 -1.2891,1.957 -1.8399,2.93 -0.4296,0.82 -0.8203,1.597 -1.1718,2.378 -0.3907,0.981 -0.6993,1.961 -0.8985,2.891 -0.3125,1.289 -0.6211,2.578 -0.6211,3.867 0,0.903 0.0703,1.801 0.2305,2.703 0.1992,1.207 0.0781,2.418 -0.2305,3.59 v 59.379 c 0.1914,-0.199 0.5,-0.39 0.6993,-0.629 1.7617,-1.519 3.5507,-3.051 5.5507,-4.531 C 52.3789,209.73 112.66,191.988 200,191.988 c 86.988,0 147.07,17.582 177.34,40.242 2.43,1.75 4.609,3.551 6.64,5.43 v -59.379 c -0.308,-1.172 -0.429,-2.383 -0.23,-3.59 0.16,-0.902 0.23,-1.8 0.23,-2.703 0,-1.289 -0.308,-2.578 -0.621,-3.867 z m 0.621,165.551 v -59.41 c -0.308,-1.141 -0.429,-2.352 -0.23,-3.563 0.16,-0.898 0.23,-1.789 0.23,-2.687 0,-1.293 -0.308,-2.582 -0.621,-3.91 -0.238,-0.942 -0.55,-1.911 -0.937,-2.891 -0.313,-0.781 -0.703,-1.563 -1.133,-2.383 -0.551,-0.976 -1.129,-1.949 -1.84,-2.93 -0.539,-0.738 -1.129,-1.488 -1.75,-2.226 -0.898,-1.051 -1.84,-2.113 -2.898,-3.121 -0.66,-0.629 -1.36,-1.25 -2.102,-1.922 -1.289,-1.129 -2.66,-2.258 -4.179,-3.399 -0.668,-0.46 -1.372,-0.929 -2.071,-1.441 -1.801,-1.25 -3.719,-2.461 -5.789,-3.711 -0.539,-0.308 -1.09,-0.629 -1.68,-0.937 -2.378,-1.371 -4.878,-2.692 -7.57,-3.981 -0.32,-0.16 -0.711,-0.32 -1.058,-0.469 -2.973,-1.453 -6.133,-2.812 -9.454,-4.179 -0.117,-0.043 -0.199,-0.082 -0.308,-0.121 -18.168,-7.231 -41.41,-13.36 -68.481,-17.34 -0.16,0 -0.269,-0.039 -0.429,-0.039 -5.231,-0.782 -10.66,-1.492 -16.211,-2.071 -0.899,-0.121 -1.84,-0.203 -2.739,-0.281 -4.839,-0.5 -9.761,-0.969 -14.8,-1.32 -2.309,-0.199 -4.692,-0.281 -7.032,-0.391 -3.828,-0.238 -7.578,-0.469 -11.449,-0.629 -6.359,-0.199 -12.847,-0.308 -19.449,-0.308 -6.602,0 -13.09,0.109 -19.449,0.347 -3.91,0.121 -7.66,0.391 -11.449,0.59 -2.34,0.153 -4.762,0.231 -7.071,0.391 -5.043,0.39 -9.922,0.859 -14.761,1.359 -0.899,0.082 -1.879,0.16 -2.782,0.242 -5.539,0.618 -10.937,1.329 -16.207,2.071 -0.121,0.039 -0.269,0.039 -0.39,0.078 -27.071,3.98 -50.3129,10.07 -68.4808,17.34 -0.1094,0.039 -0.1914,0.082 -0.3086,0.121 -3.3633,1.328 -6.4805,2.73 -9.4922,4.14 -0.3086,0.188 -0.6992,0.348 -1.0586,0.508 -2.6524,1.281 -5.1524,2.61 -7.5313,3.942 -0.5898,0.347 -1.1797,0.66 -1.7187,0.98 -2.0703,1.207 -3.9492,2.457 -5.75,3.707 -0.6992,0.473 -1.4024,0.942 -2.0703,1.442 -1.5196,1.14 -2.8907,2.269 -4.211,3.402 -0.7109,0.629 -1.4101,1.25 -2.0703,1.879 -1.0586,1.051 -2,2.109 -2.8984,3.16 -0.6211,0.699 -1.25,1.449 -1.75,2.187 -0.711,1.012 -1.2891,1.993 -1.8399,2.973 -0.4296,0.777 -0.8203,1.559 -1.1718,2.379 -0.3907,0.98 -0.6993,1.91 -0.8985,2.891 -0.3125,1.289 -0.6211,2.578 -0.6211,3.871 0,0.898 0.0703,1.789 0.2305,2.687 0.1992,1.211 0.0781,2.422 -0.2305,3.563 v 59.41 c 0.9297,-0.902 2.0313,-1.762 3.0821,-2.621 0.5898,-0.461 1.0976,-0.93 1.7187,-1.442 2.3789,-1.879 5,-3.75 7.8086,-5.55 0.5899,-0.387 1.2109,-0.739 1.8399,-1.129 2.3398,-1.45 4.8398,-2.891 7.4609,-4.301 0.9805,-0.508 1.9101,-1.008 2.9297,-1.559 2.9297,-1.48 5.9804,-2.929 9.2187,-4.34 0.5117,-0.191 0.9727,-0.46 1.5235,-0.66 3.75,-1.601 7.7382,-3.121 11.8789,-4.609 1.1679,-0.391 2.3398,-0.781 3.5078,-1.172 3.3203,-1.129 6.7226,-2.187 10.2422,-3.199 1.289,-0.391 2.539,-0.789 3.8203,-1.141 4.6875,-1.289 9.539,-2.5 14.6094,-3.629 0.6679,-0.199 1.4492,-0.308 2.1484,-0.468 4.4614,-0.973 9.1014,-1.872 13.8714,-2.731 1.601,-0.281 3.242,-0.551 4.922,-0.82 4.527,-0.75 9.179,-1.41 13.988,-2.031 1.211,-0.161 2.422,-0.36 3.672,-0.508 5.937,-0.711 12.109,-1.332 18.437,-1.883 1.563,-0.109 3.16,-0.188 4.762,-0.309 5.039,-0.39 10.238,-0.66 15.508,-0.941 1.953,-0.078 3.871,-0.149 5.82,-0.231 6.91,-0.238 13.941,-0.386 21.211,-0.386 7.27,0 14.301,0.148 21.211,0.386 1.949,0.082 3.867,0.153 5.82,0.231 5.27,0.281 10.469,0.551 15.508,0.941 1.602,0.121 3.199,0.2 4.762,0.309 6.328,0.551 12.5,1.172 18.437,1.883 1.25,0.148 2.461,0.347 3.672,0.508 4.809,0.621 9.461,1.281 13.988,2.031 1.68,0.269 3.321,0.539 4.922,0.82 4.77,0.859 9.41,1.758 13.871,2.731 0.7,0.16 1.481,0.308 2.149,0.468 5.07,1.129 9.922,2.34 14.609,3.629 1.281,0.391 2.531,0.75 3.821,1.141 3.519,1.012 6.921,2.07 10.242,3.199 1.168,0.391 2.34,0.781 3.508,1.172 4.14,1.488 8.128,3.008 11.878,4.609 0.551,0.2 1.012,0.469 1.524,0.66 3.238,1.411 6.289,2.86 9.219,4.34 1.019,0.551 1.988,1.051 2.929,1.559 2.621,1.41 5.121,2.82 7.461,4.301 0.629,0.39 1.25,0.742 1.84,1.129 2.809,1.8 5.43,3.671 7.809,5.55 0.59,0.512 1.129,0.981 1.718,1.442 1.051,0.859 2.153,1.719 3.082,2.621 z M 200,423.98 c 108.441,0 183.98,-31.601 183.98,-60 0,-28.359 -75.539,-60 -183.98,-60 -108.4414,0 -183.9805,31.641 -183.9805,60 0,28.399 75.5391,60 183.9805,60 z M 383.98,74.3789 c -0.07,-0.3594 -0.191,-0.707 -0.23,-1.0976 C 379.219,45.6211 304.301,16.0195 200,16.0195 c -104.3008,0 -179.2187,29.6016 -183.75,57.2618 -0.0391,0.3906 -0.1602,0.7382 -0.2305,1.0585 v 67.3012 c 0.1914,-0.192 0.5,-0.391 0.6993,-0.59 1.7617,-1.563 3.5507,-3.082 5.5507,-4.531 C 52.3789,113.711 112.66,96.0195 200,96.0195 c 86.988,0 147.07,17.5315 177.34,40.1915 2.43,1.758 4.609,3.59 6.64,5.43 z"
               style="fill:#000000;fill-opacity:1;fill-rule:nonzero;stroke:none"
               id="path968"
               inkscape:connector-curvature="0" />
          </g>
        </g>
        <rect
           y="160.89029"
           x="109.99107"
           height="20.788691"
           width="42.711311"
           id="rect974"
           style="fill:url(#radialGradient984);fill-opacity:1;stroke:#000000;stroke-width:0.26499999;stroke-miterlimit:4;stroke-dasharray:none;stroke-opacity:0.98823529" />
        <text
           id="text978"
           y="173.55241"
           x="115.28274"
           style="font-style:normal;font-weight:normal;font-size:10.58333302px;line-height:125%;font-family:sans-serif;letter-spacing:0px;word-spacing:0px;fill:#000000;fill-opacity:1;stroke:none;stroke-width:0.26458332px;stroke-linecap:butt;stroke-linejoin:miter;stroke-opacity:1"
           xml:space="preserve"><tspan
             style="font-style:normal;font-variant:normal;font-weight:normal;font-stretch:normal;font-size:7.05555534px;font-family:sans-serif;-inkscape-font-specification:'sans-serif, Normal';font-variant-ligatures:normal;font-variant-caps:normal;font-variant-numeric:normal;font-feature-settings:normal;text-align:start;writing-mode:lr-tb;text-anchor:start;stroke-width:0.26458332px"
             y="173.55241"
             x="115.28274"
             id="tspan976"
             sodipodi:role="line">System 2</tspan></text>
        <path
           inkscape:connector-curvature="0"
           id="path980"
           d="m 84.291227,171.22338 25.605353,0.16597 v 0"
           style="fill:none;fill-rule:evenodd;stroke:#000000;stroke-width:0.26458332px;stroke-linecap:butt;stroke-linejoin:miter;stroke-opacity:1" />
      </g>
      <rect
         y="30.526787"
         x="10.205358"
         height="99.407738"
         width="118.68452"
         id="rect1012"
         style="fill:#ffffff;fill-opacity:0;stroke:#000000;stroke-width:0.26499999;stroke-miterlimit:4;stroke-dasharray:none;stroke-opacity:0.98823529" />
    </g>
    <path
       style="fill:none;fill-rule:evenodd;stroke:#000000;stroke-width:0.26458332px;stroke-linecap:butt;stroke-linejoin:miter;stroke-opacity:1"
       d="m 128.57431,180.19649 c 37.35113,0.0668 37.35113,0.0668 37.35113,0.0668"
       id="path1033"
       inkscape:connector-curvature="0" />
    <text
       xml:space="preserve"
       style="font-style:normal;font-weight:normal;font-size:10.58333302px;line-height:125%;font-family:sans-serif;letter-spacing:0px;word-spacing:0px;fill:#000000;fill-opacity:1;stroke:none;stroke-width:0.26458332px;stroke-linecap:butt;stroke-linejoin:miter;stroke-opacity:1"
       x="167.3138"
       y="182.81395"
       id="text1037"><tspan
         sodipodi:role="line"
         id="tspan1035"
         x="167.3138"
         y="182.81395"
         style="font-style:normal;font-variant:normal;font-weight:normal;font-stretch:normal;font-size:7.05555534px;font-family:sans-serif;-inkscape-font-specification:'sans-serif, Normal';font-variant-ligatures:normal;font-variant-caps:normal;font-variant-numeric:normal;font-feature-settings:normal;text-align:start;writing-mode:lr-tb;text-anchor:start;stroke-width:0.26458332px">WWW</tspan></text>
    <g
       id="g1078"
       transform="translate(30.150992,133.62459)">
      <g
         id="g1048">
        <rect
           style="fill:#ffffff;fill-opacity:0;stroke:#000000;stroke-width:0.1646875;stroke-miterlimit:4;stroke-dasharray:none;stroke-opacity:0.98823529"
           id="rect1039"
           width="30.69331"
           height="11.68049"
           x="14.910968"
           y="149.63515" />
        <text
           xml:space="preserve"
           style="font-style:normal;font-weight:normal;font-size:10.58333302px;line-height:125%;font-family:sans-serif;letter-spacing:0px;word-spacing:0px;fill:#000000;fill-opacity:1;stroke:none;stroke-width:0.26458332px;stroke-linecap:butt;stroke-linejoin:miter;stroke-opacity:1"
           x="17.511526"
           y="158.28172"
           id="text1043"><tspan
             sodipodi:role="line"
             id="tspan1041"
             x="17.511526"
             y="158.28172"
             style="font-style:normal;font-variant:normal;font-weight:normal;font-stretch:normal;font-size:7.05555534px;font-family:sans-serif;-inkscape-font-specification:'sans-serif, Normal';font-variant-ligatures:normal;font-variant-caps:normal;font-variant-numeric:normal;font-feature-settings:normal;text-align:start;writing-mode:lr-tb;text-anchor:start;stroke-width:0.26458332px">Lokal 1</tspan></text>
      </g>
      <g
         transform="translate(46.980344,-0.01551721)"
         id="g1056">
        <rect
           y="149.63515"
           x="14.910968"
           height="11.68049"
           width="30.69331"
           id="rect1050"
           style="fill:#ffffff;fill-opacity:0;stroke:#000000;stroke-width:0.1646875;stroke-miterlimit:4;stroke-dasharray:none;stroke-opacity:0.98823529" />
        <text
           id="text1054"
           y="158.28172"
           x="17.511526"
           style="font-style:normal;font-weight:normal;font-size:10.58333302px;line-height:125%;font-family:sans-serif;letter-spacing:0px;word-spacing:0px;fill:#000000;fill-opacity:1;stroke:none;stroke-width:0.26458332px;stroke-linecap:butt;stroke-linejoin:miter;stroke-opacity:1"
           xml:space="preserve"><tspan
             style="font-style:normal;font-variant:normal;font-weight:normal;font-stretch:normal;font-size:7.05555534px;font-family:sans-serif;-inkscape-font-specification:'sans-serif, Normal';font-variant-ligatures:normal;font-variant-caps:normal;font-variant-numeric:normal;font-feature-settings:normal;text-align:start;writing-mode:lr-tb;text-anchor:start;stroke-width:0.26458332px"
             y="158.28172"
             x="17.511526"
             id="tspan1052"
             sodipodi:role="line">Lokal 2</tspan></text>
      </g>
      <g
         id="g1064"
         transform="translate(94.013742,-0.01621258)">
        <rect
           style="fill:#ffffff;fill-opacity:0;stroke:#000000;stroke-width:0.1646875;stroke-miterlimit:4;stroke-dasharray:none;stroke-opacity:0.98823529"
           id="rect1058"
           width="30.69331"
           height="11.68049"
           x="14.910968"
           y="149.63515" />
        <text
           xml:space="preserve"
           style="font-style:normal;font-weight:normal;font-size:10.58333302px;line-height:125%;font-family:sans-serif;letter-spacing:0px;word-spacing:0px;fill:#000000;fill-opacity:1;stroke:none;stroke-width:0.26458332px;stroke-linecap:butt;stroke-linejoin:miter;stroke-opacity:1"
           x="17.511526"
           y="158.28172"
           id="text1062"><tspan
             sodipodi:role="line"
             id="tspan1060"
             x="17.511526"
             y="158.28172"
             style="font-style:normal;font-variant:normal;font-weight:normal;font-stretch:normal;font-size:7.05555534px;font-family:sans-serif;-inkscape-font-specification:'sans-serif, Normal';font-variant-ligatures:normal;font-variant-caps:normal;font-variant-numeric:normal;font-feature-settings:normal;text-align:start;writing-mode:lr-tb;text-anchor:start;stroke-width:0.26458332px">Lokal 3</tspan></text>
      </g>
    </g>
    <text
       xml:space="preserve"
       style="font-style:normal;font-weight:normal;font-size:10.58333302px;line-height:125%;font-family:sans-serif;letter-spacing:0px;word-spacing:0px;fill:#000000;fill-opacity:1;stroke:none;stroke-width:0.26458332px;stroke-linecap:butt;stroke-linejoin:miter;stroke-opacity:1"
       x="109.90398"
       y="264.50406"
       id="text1082"><tspan
         sodipodi:role="line"
         id="tspan1080"
         x="109.90398"
         y="264.50406"
         style="font-style:normal;font-variant:normal;font-weight:normal;font-stretch:normal;font-size:7.05555534px;font-family:sans-serif;-inkscape-font-specification:'sans-serif, Normal';font-variant-ligatures:normal;font-variant-caps:normal;font-variant-numeric:normal;font-feature-settings:normal;text-align:start;writing-mode:lr-tb;text-anchor:start;stroke-width:0.26458332px">VPN</tspan></text>
    <path
       style="fill:none;fill-rule:evenodd;stroke:#000000;stroke-width:0.26600507px;stroke-linecap:butt;stroke-linejoin:miter;stroke-opacity:1"
       d="m 106.31319,233.32101 c 0,49.6664 0,49.85743 0,49.85743"
       id="path1084"
       inkscape:connector-curvature="0" />
    <path
       style="fill:none;fill-rule:evenodd;stroke:#000000;stroke-width:0.17813663px;stroke-linecap:butt;stroke-linejoin:miter;stroke-opacity:1"
       d="m 59.113418,283.26112 c 0,-11.32953 0,-11.32953 0,-11.32953"
       id="path1086"
       inkscape:connector-curvature="0" />
    <path
       inkscape:connector-curvature="0"
       id="path1088"
       d="m 152.77594,283.26112 c 0,-11.32953 0,-11.32953 0,-11.32953"
       style="fill:none;fill-rule:evenodd;stroke:#000000;stroke-width:0.17813663px;stroke-linecap:butt;stroke-linejoin:miter;stroke-opacity:1" />
    <path
       style="fill:none;fill-rule:evenodd;stroke:#000000;stroke-width:0.26458332px;stroke-linecap:butt;stroke-linejoin:miter;stroke-opacity:1"
       d="m 59.113418,271.93159 c 93.662522,0 93.662522,0 93.662522,0"
       id="path1090"
       inkscape:connector-curvature="0" />
    <path
       style="fill:none;fill-rule:evenodd;stroke:#000000;stroke-width:0.26458332px;stroke-linecap:butt;stroke-linejoin:miter;stroke-opacity:1"
       d="M 63.412897,192.40509 Z"
       id="path1092"
       inkscape:connector-curvature="0" />
    <path
       style="fill:none;fill-rule:evenodd;stroke:#000000;stroke-width:0.26458332px;stroke-linecap:butt;stroke-linejoin:miter;stroke-opacity:1"
       d="m 62.618304,193.08618 c 14.288344,8.05016 0.397719,15.4207 0.397719,15.4207"
       id="path1098"
       inkscape:connector-curvature="0" />
    <path
       style="fill:none;fill-rule:evenodd;stroke:#000000;stroke-width:0.26458332px;stroke-linecap:butt;stroke-linejoin:miter;stroke-opacity:1"
       d="m 63.526627,207.34777 -0.510604,1.15911 1.195483,-0.0566"
       id="path1100"
       inkscape:connector-curvature="0" />
    <text
       xml:space="preserve"
       style="font-style:normal;font-weight:normal;font-size:10.58333302px;line-height:125%;font-family:sans-serif;letter-spacing:0px;word-spacing:0px;fill:#000000;fill-opacity:1;stroke:none;stroke-width:0.26458332px;stroke-linecap:butt;stroke-linejoin:miter;stroke-opacity:1"
       x="70.672722"
       y="200.68823"
       id="text1104"><tspan
         sodipodi:role="line"
         id="tspan1102"
         x="70.672722"
         y="200.68823"
         style="font-style:normal;font-variant:normal;font-weight:normal;font-stretch:normal;font-size:6.3499999px;font-family:sans-serif;-inkscape-font-specification:'sans-serif, Normal';font-variant-ligatures:normal;font-variant-caps:normal;font-variant-numeric:normal;font-feature-settings:normal;text-align:start;writing-mode:lr-tb;text-anchor:start;stroke-width:0.26458332px">Copy</tspan></text>
    <path
       style="fill:none;fill-rule:evenodd;stroke:#000000;stroke-width:0.31464583;stroke-linecap:butt;stroke-linejoin:miter;stroke-miterlimit:4;stroke-dasharray:0.31464581, 1.88787484;stroke-dashoffset:0;stroke-opacity:1"
       d="M 15.785018,202.92112 H 196.4592"
       id="path1106"
       inkscape:connector-curvature="0" />
  </g>
</svg>
